<mxfile host="www.draw.io" modified="2019-12-17T09:19:16.247Z" agent="Mozilla/5.0 (Macintosh; Intel Mac OS X 10_13_6) AppleWebKit/537.36 (KHTML, like Gecko) Chrome/78.0.3904.108 Safari/537.36" etag="7nR_t1zI0de7S6wupiq0" version="12.4.2" type="github" pages="1">
  <diagram id="heLUMEel5ZSLhCwW_7WS" name="Page-1">
    <mxGraphModel dx="946" dy="623" grid="1" gridSize="10" guides="1" tooltips="1" connect="1" arrows="1" fold="1" page="1" pageScale="1" pageWidth="1169" pageHeight="1654" math="0" shadow="0">
      <root>
        <mxCell id="0"/>
        <mxCell id="1" parent="0"/>
        <mxCell id="y86dbsFG_UYiZ3MiKZXV-3" value="" style="edgeStyle=orthogonalEdgeStyle;rounded=0;orthogonalLoop=1;jettySize=auto;html=1;" parent="1" source="y86dbsFG_UYiZ3MiKZXV-1" edge="1">
          <mxGeometry relative="1" as="geometry">
            <mxPoint x="280" y="280" as="targetPoint"/>
          </mxGeometry>
        </mxCell>
        <mxCell id="y86dbsFG_UYiZ3MiKZXV-1" value="开始" style="rounded=1;whiteSpace=wrap;html=1;" parent="1" vertex="1">
          <mxGeometry x="225" y="170" width="110" height="60" as="geometry"/>
        </mxCell>
        <mxCell id="y86dbsFG_UYiZ3MiKZXV-5" value="填写邀请码" style="text;html=1;align=center;verticalAlign=middle;resizable=0;points=[];;autosize=1;" parent="1" vertex="1">
          <mxGeometry x="281" y="242" width="80" height="20" as="geometry"/>
        </mxCell>
        <mxCell id="y86dbsFG_UYiZ3MiKZXV-8" value="" style="edgeStyle=orthogonalEdgeStyle;rounded=0;orthogonalLoop=1;jettySize=auto;html=1;" parent="1" source="y86dbsFG_UYiZ3MiKZXV-6" edge="1">
          <mxGeometry relative="1" as="geometry">
            <mxPoint x="430" y="320" as="targetPoint"/>
          </mxGeometry>
        </mxCell>
        <mxCell id="y86dbsFG_UYiZ3MiKZXV-16" value="" style="edgeStyle=orthogonalEdgeStyle;rounded=0;orthogonalLoop=1;jettySize=auto;html=1;" parent="1" source="y86dbsFG_UYiZ3MiKZXV-6" edge="1">
          <mxGeometry relative="1" as="geometry">
            <mxPoint x="280" y="440" as="targetPoint"/>
          </mxGeometry>
        </mxCell>
        <mxCell id="y86dbsFG_UYiZ3MiKZXV-6" value="邀请码是否有效" style="rhombus;whiteSpace=wrap;html=1;" parent="1" vertex="1">
          <mxGeometry x="210" y="280" width="140" height="80" as="geometry"/>
        </mxCell>
        <mxCell id="y86dbsFG_UYiZ3MiKZXV-9" value="是" style="text;html=1;align=center;verticalAlign=middle;resizable=0;points=[];;autosize=1;" parent="1" vertex="1">
          <mxGeometry x="370" y="290" width="30" height="20" as="geometry"/>
        </mxCell>
        <mxCell id="y86dbsFG_UYiZ3MiKZXV-12" value="" style="edgeStyle=orthogonalEdgeStyle;rounded=0;orthogonalLoop=1;jettySize=auto;html=1;" parent="1" source="y86dbsFG_UYiZ3MiKZXV-10" edge="1">
          <mxGeometry relative="1" as="geometry">
            <mxPoint x="650" y="320" as="targetPoint"/>
          </mxGeometry>
        </mxCell>
        <mxCell id="y86dbsFG_UYiZ3MiKZXV-20" value="" style="edgeStyle=orthogonalEdgeStyle;rounded=0;orthogonalLoop=1;jettySize=auto;html=1;" parent="1" source="y86dbsFG_UYiZ3MiKZXV-10" edge="1">
          <mxGeometry relative="1" as="geometry">
            <mxPoint x="500" y="440" as="targetPoint"/>
          </mxGeometry>
        </mxCell>
        <mxCell id="y86dbsFG_UYiZ3MiKZXV-10" value="此码是否达到生命周期&lt;br&gt;邀请限制10次" style="rhombus;whiteSpace=wrap;html=1;" parent="1" vertex="1">
          <mxGeometry x="430" y="280" width="150" height="80" as="geometry"/>
        </mxCell>
        <mxCell id="y86dbsFG_UYiZ3MiKZXV-13" value="是" style="text;html=1;align=center;verticalAlign=middle;resizable=0;points=[];;autosize=1;" parent="1" vertex="1">
          <mxGeometry x="590" y="299" width="30" height="20" as="geometry"/>
        </mxCell>
        <mxCell id="y86dbsFG_UYiZ3MiKZXV-28" value="" style="edgeStyle=orthogonalEdgeStyle;rounded=0;orthogonalLoop=1;jettySize=auto;html=1;" parent="1" source="y86dbsFG_UYiZ3MiKZXV-14" edge="1">
          <mxGeometry relative="1" as="geometry">
            <mxPoint x="390" y="610" as="targetPoint"/>
            <Array as="points">
              <mxPoint x="710" y="480"/>
              <mxPoint x="710" y="480"/>
            </Array>
          </mxGeometry>
        </mxCell>
        <mxCell id="y86dbsFG_UYiZ3MiKZXV-14" value="被邀请者加金币&lt;br&gt;邀请者无金币" style="rounded=0;whiteSpace=wrap;html=1;" parent="1" vertex="1">
          <mxGeometry x="650" y="290" width="120" height="60" as="geometry"/>
        </mxCell>
        <mxCell id="y86dbsFG_UYiZ3MiKZXV-17" value="否" style="text;html=1;align=center;verticalAlign=middle;resizable=0;points=[];;autosize=1;" parent="1" vertex="1">
          <mxGeometry x="240" y="395" width="30" height="20" as="geometry"/>
        </mxCell>
        <mxCell id="y86dbsFG_UYiZ3MiKZXV-24" value="" style="edgeStyle=orthogonalEdgeStyle;rounded=0;orthogonalLoop=1;jettySize=auto;html=1;" parent="1" source="y86dbsFG_UYiZ3MiKZXV-18" target="y86dbsFG_UYiZ3MiKZXV-23" edge="1">
          <mxGeometry relative="1" as="geometry"/>
        </mxCell>
        <mxCell id="y86dbsFG_UYiZ3MiKZXV-18" value="邀请不成功" style="rounded=0;whiteSpace=wrap;html=1;" parent="1" vertex="1">
          <mxGeometry x="220" y="440" width="120" height="60" as="geometry"/>
        </mxCell>
        <mxCell id="y86dbsFG_UYiZ3MiKZXV-21" value="否" style="text;html=1;align=center;verticalAlign=middle;resizable=0;points=[];;autosize=1;" parent="1" vertex="1">
          <mxGeometry x="510" y="395" width="30" height="20" as="geometry"/>
        </mxCell>
        <mxCell id="y86dbsFG_UYiZ3MiKZXV-26" value="" style="edgeStyle=orthogonalEdgeStyle;rounded=0;orthogonalLoop=1;jettySize=auto;html=1;entryX=1;entryY=0.5;entryDx=0;entryDy=0;" parent="1" source="y86dbsFG_UYiZ3MiKZXV-22" target="y86dbsFG_UYiZ3MiKZXV-23" edge="1">
          <mxGeometry relative="1" as="geometry">
            <mxPoint x="500" y="580" as="targetPoint"/>
          </mxGeometry>
        </mxCell>
        <mxCell id="y86dbsFG_UYiZ3MiKZXV-22" value="&lt;span style=&quot;white-space: normal&quot;&gt;被邀请者加金币&lt;/span&gt;&lt;br style=&quot;white-space: normal&quot;&gt;&lt;span style=&quot;white-space: normal&quot;&gt;邀请者加金币&lt;/span&gt;" style="rounded=0;whiteSpace=wrap;html=1;" parent="1" vertex="1">
          <mxGeometry x="440" y="440" width="120" height="60" as="geometry"/>
        </mxCell>
        <mxCell id="y86dbsFG_UYiZ3MiKZXV-23" value="结束" style="rounded=1;whiteSpace=wrap;html=1;" parent="1" vertex="1">
          <mxGeometry x="220" y="580" width="120" height="60" as="geometry"/>
        </mxCell>
        <mxCell id="TqC3DCK-FILV0pKlSyj0-2" value="Title: 邀请码流程&lt;br&gt;Author：fupeng.li&lt;br&gt;Platform：draw.io" style="text;html=1;align=center;verticalAlign=middle;resizable=0;points=[];;autosize=1;" vertex="1" parent="1">
          <mxGeometry x="110" y="74" width="110" height="50" as="geometry"/>
        </mxCell>
      </root>
    </mxGraphModel>
  </diagram>
</mxfile>
